<svg id="Layer_1" enable-background="new 0 0 256 256" height="512" viewBox="0 0 256 256" width="512" xmlns="http://www.w3.org/2000/svg"><g><g><g><path d="m200.578 81.242h-145.156c-8.284 0-15-6.716-15-15s6.716-15 15-15h145.156c8.284 0 15 6.716 15 15s-6.716 15-15 15z" fill="#ffa91a"/></g></g><g><path d="m46.42 68.24c-1.1 0-2-.89-2-2 0-1.1.9-2 2-2s1.99.89 2 1.99v.01c0 1.11-.9 2-2 2zm3.33-6.98c-.6 0-1.17-.27-1.55-.74-.7-.86-.57-2.12.29-2.81 1.95-1.59 4.41-2.47 6.93-2.47h134.84c1.11 0 2 .9 2 2 0 1.11-.89 2-2 2h-134.84c-1.62 0-3.15.54-4.41 1.57-.35.29-.8.45-1.26.45z" fill="#ffc91d"/></g><g><path d="m204.935 51.885c.418 1.379.643 2.842.643 4.357 0 8.284-6.716 15-15 15h-145.156c-1.515 0-2.978-.225-4.357-.643 1.867 6.159 7.588 10.643 14.357 10.643h145.156c8.284 0 15-6.716 15-15 0-6.769-4.484-12.491-10.643-14.357z" fill="#f79219"/></g><g><g><path d="m200.578 143h-145.156c-8.284 0-15-6.716-15-15s6.716-15 15-15h145.156c8.284 0 15 6.716 15 15s-6.716 15-15 15z" fill="#ffa91a"/></g></g><g><path d="m204.935 113.643c.418 1.379.643 2.842.643 4.357 0 8.284-6.716 15-15 15h-145.156c-1.515 0-2.978-.225-4.357-.643 1.867 6.159 7.588 10.643 14.357 10.643h145.156c8.284 0 15-6.716 15-15 0-6.769-4.484-12.49-10.643-14.357z" fill="#f79219"/></g><g><g><path d="m200.578 204.758h-145.156c-8.284 0-15-6.716-15-15s6.716-15 15-15h145.156c8.284 0 15 6.716 15 15s-6.716 15-15 15z" fill="#ffa91a"/></g></g><g><path d="m204.935 175.401c.418 1.379.643 2.842.643 4.357 0 8.284-6.716 15-15 15h-145.156c-1.515 0-2.978-.225-4.357-.643 1.867 6.159 7.588 10.643 14.357 10.643h145.156c8.284 0 15-6.716 15-15 0-6.768-4.484-12.49-10.643-14.357z" fill="#f79219"/></g><g><path d="m208.387 176.949c1.39 2.275 2.191 4.948 2.191 7.809 0 8.284-6.716 15-15 15h-145.156c-2.861 0-5.534-.801-7.809-2.191 2.635 4.312 7.386 7.191 12.809 7.191h145.156c8.284 0 15-6.716 15-15 0-5.423-2.879-10.174-7.191-12.809z" fill="#ef7816"/></g></g></svg>